<svg width="1920" height="1080" viewBox="0 0 1920 1080" fill="none" xmlns="http://www.w3.org/2000/svg">
<rect width="1920" height="1080" fill="#1F1F1F"/>
<g opacity="0.6">
<rect width="256" height="256" transform="translate(107 230.454) rotate(-10)" fill="#7EFFA7"/>
<g clip-path="url(#clip0_2_55)">
<path fill-rule="evenodd" clip-rule="evenodd" d="M304.481 380.464L311.92 388.807C315.767 381.507 318.676 373.55 320.729 364.994L327.509 378.824C331.527 370.45 332.257 360.068 329.839 347.778L338.843 354.58C339.297 339.321 333.907 324.926 325.653 310.939L336.857 312.149C331.47 300.063 321.796 290.723 310.505 282.391C312.13 273.854 312.575 249.554 302.451 245.552C300.224 244.679 297.948 245.344 295.623 247.145L275.644 262.132C250.633 254.578 229.526 259.774 211.04 273.523L187.184 266.364C174.013 263.385 177.604 282.41 179.397 289.899C180.801 295.731 183.155 300.797 186.35 305.187C177.378 316.243 173.113 328.584 171.083 341.533L180.86 337.332C177.506 351.92 178.667 367.185 183.37 382.968L189.565 371.942C192.111 384.96 196.467 394.835 203.044 400.812L203.866 384.167C208.442 391.736 213.741 398.829 221.052 404.551L224.724 394.444C218.786 380.02 223.529 374.648 228.098 369.474C230.893 366.31 233.608 363.244 232.635 357.489C232.451 356.45 233.152 355.45 234.204 355.264C235.243 355.081 236.243 355.781 236.429 356.834C237.669 364.183 234.589 367.94 231.308 371.663C233.249 372.016 234.953 372.453 236.463 372.966C238.655 373.72 240.443 374.629 241.903 375.652C242.776 376.263 242.974 377.466 242.363 378.339C241.752 379.212 240.549 379.41 239.676 378.799C238.501 377.977 237.048 377.231 235.213 376.609C233.362 375.975 231.13 375.464 228.439 375.118C227.37 376.628 226.503 378.339 226.115 380.481C229.832 380.966 232.808 381.749 235.21 382.745C237.747 383.8 239.645 385.093 241.095 386.534C241.852 387.277 241.859 388.5 241.116 389.258C240.373 390.015 239.15 390.022 238.393 389.279C237.263 388.156 235.762 387.141 233.736 386.302C231.726 385.474 229.186 384.795 225.962 384.347C226.17 386.787 226.907 389.704 228.4 393.281C228.451 393.411 228.491 393.557 228.514 393.692L229.324 393.549C231.441 394.664 233.503 395.553 235.525 396.212C235.536 396.432 235.593 396.673 235.687 396.893C239.056 404.479 244.995 409.359 251.865 411.792C257.267 413.706 263.235 414.1 268.974 413.116C274.7 412.134 280.194 409.76 284.674 406.132L284.688 406.13C290.411 401.504 294.452 394.837 295.114 386.442C295.13 386.217 295.103 385.985 295.052 385.771C296.751 384.442 298.3 382.889 299.597 381.172L300.663 380.984C300.639 380.849 300.629 380.712 300.63 380.558C300.812 376.7 300.509 373.721 299.87 371.357C297.032 372.859 294.902 374.348 293.321 375.795C291.704 377.277 290.641 378.744 289.963 380.185C289.505 381.143 288.354 381.554 287.397 381.097C286.44 380.64 286.028 379.488 286.485 378.531C287.369 376.678 288.696 374.816 290.719 372.957C292.611 371.218 295.115 369.483 298.401 367.762C297.318 365.88 295.918 364.569 294.397 363.516C292.321 364.605 290.617 365.671 289.228 366.709V366.709C287.803 367.781 286.709 368.836 285.847 369.865C285.17 370.68 283.955 370.811 283.14 370.133C282.325 369.456 282.208 368.239 282.871 367.426C283.927 366.155 285.233 364.881 286.904 363.627C287.973 362.826 289.168 362.031 290.517 361.237C286.131 358.852 281.952 356.375 280.588 349.033C280.405 347.994 281.092 346.997 282.142 346.798C283.181 346.614 284.178 347.301 284.377 348.351C285.431 354.092 289.045 356.043 292.74 358.062C298.859 361.365 305.156 364.805 304.481 380.464ZM219.16 321.467L213.554 322.024C212.901 329.916 218.136 336.255 225.812 333.552C227.999 332.777 229.918 331.033 231.57 328.335C230.575 327.106 229.646 325.864 228.774 324.627L228.419 324.508C227.714 325.635 226.541 326.481 225.124 326.731C222.453 327.202 219.913 325.424 219.442 322.752C219.371 322.348 219.353 321.933 219.381 321.539L219.16 321.467ZM286.057 309.671L291.516 308.277C294.829 315.47 292.077 323.217 283.94 323.303C281.62 323.322 279.22 322.34 276.744 320.37C277.26 318.874 277.708 317.39 278.104 315.929L278.249 315.806C279.29 316.582 280.634 316.943 282.024 316.698C284.695 316.227 286.473 313.688 286.002 311.016C285.938 310.652 285.833 310.295 285.691 309.958L286.057 309.671ZM250.653 401.92C257.528 400.513 262.372 397.057 265.046 389.893C269.845 395.252 275.738 397.51 281.889 396.412C280.838 398.183 279.66 399.629 278.352 400.736C274.493 404.018 261.183 405.934 256.821 404.867C254.683 404.339 252.639 403.322 250.653 401.92ZM275.887 375.391C275.576 378.048 274.469 380.371 272.585 382.387C270.792 384.289 268.288 385.872 265.077 387.147C264.92 387.203 264.76 387.245 264.598 387.273C259.718 388.078 254.652 385.939 251.649 382.795C250.491 381.594 249.623 380.217 249.145 378.771C248.637 377.233 248.575 375.616 249.092 374.05C249.996 371.289 252.66 368.802 257.804 367.283C259.073 366.906 260.402 366.63 261.774 366.444C263.146 366.257 264.551 366.177 266.002 366.199C269.307 366.242 271.767 366.309 273.592 367.504C275.596 368.848 276.387 371.129 275.887 375.391ZM269.769 379.753C271.083 378.367 271.843 376.758 272.056 374.968C272.367 372.395 272.14 371.183 271.446 370.721C270.548 370.128 268.593 370.083 265.944 370.049C264.675 370.036 263.448 370.1 262.281 370.264C261.111 370.414 259.971 370.657 258.875 370.99C255.117 372.084 253.262 373.635 252.738 375.244C252.493 375.983 252.537 376.782 252.798 377.556C253.095 378.45 253.666 379.323 254.435 380.134C256.638 382.444 260.31 384.023 263.849 383.496C266.42 382.458 268.398 381.206 269.769 379.753ZM234.496 308.634C233.534 309.096 232.391 308.685 231.931 307.737C231.469 306.775 231.88 305.631 232.828 305.172C237.598 302.87 243.161 301.124 248.942 300.063C254.694 298.993 260.678 298.606 266.308 298.976C267.365 299.054 268.167 299.97 268.102 301.025C268.024 302.082 267.108 302.884 266.054 302.819C260.732 302.464 255.08 302.834 249.636 303.836C244.205 304.835 238.983 306.466 234.496 308.634ZM300.652 251.684C301.578 251.173 302.75 251.509 303.261 252.435C303.772 253.36 303.436 254.533 302.511 255.044C299.965 256.466 297.162 258.477 294.459 260.665C291.247 263.276 288.206 266.15 285.892 268.575C285.165 269.343 283.947 269.377 283.179 268.65C282.411 267.923 282.377 266.705 283.104 265.936C285.508 263.398 288.683 260.417 292.027 257.685C294.889 255.372 297.878 253.231 300.652 251.684ZM184.651 275.825C183.606 275.662 182.89 274.675 183.054 273.631C183.217 272.586 184.204 271.87 185.248 272.033C188.397 272.535 191.925 273.527 195.392 274.724C199.482 276.146 203.485 277.861 206.599 279.426C207.545 279.899 207.93 281.056 207.457 282.002C206.984 282.948 205.827 283.333 204.881 282.859C201.89 281.356 198.052 279.709 194.126 278.356C190.852 277.222 187.543 276.289 184.651 275.825ZM220.849 300.036C219.926 300.56 218.758 300.252 218.22 299.331C217.696 298.408 218.005 297.24 218.925 296.702C227.206 291.903 236.872 288.418 246.91 286.565C256.705 284.754 266.871 284.492 276.456 286.071C277.501 286.235 278.22 287.235 278.043 288.282C277.865 289.329 276.879 290.045 275.832 289.868C266.677 288.366 256.969 288.617 247.59 290.34C238.011 292.113 228.764 295.454 220.849 300.036ZM195.817 334.89C193.662 329.928 193.846 325.054 196.168 320.471C196.505 348.417 222.044 341.214 219.179 360.473C214.496 347.484 200.753 346.318 195.817 334.89ZM209.229 321.006C207.224 321.707 205.475 321.89 203.771 321.537C201.963 321.146 200.229 320.144 198.31 318.493C200.553 324.984 206.197 323.224 208.849 325.956C209.8 326.929 210.864 328.466 211.966 330.137C213.922 333.103 214.664 334.947 218.317 336.251C222.92 337.902 226.782 335.579 233.639 341.883C234.052 340.043 234.197 338.181 234.127 336.287C233.632 321.169 221.862 317.54 209.229 321.006ZM293.195 306.2C295.318 306.174 297.024 305.748 298.504 304.833C300.07 303.847 301.357 302.312 302.596 300.105C302.707 306.971 296.802 307.248 295.244 310.722C294.683 311.962 294.209 313.77 293.746 315.716C292.922 319.173 292.855 321.16 289.869 323.634C286.107 326.76 281.684 325.898 277.397 334.167C276.379 332.58 275.606 330.88 275.024 329.076C270.319 314.7 280.138 307.264 293.195 306.2ZM187.174 349.074C184.855 343.181 184.891 337.47 187.088 332.172C188.278 364.962 213.748 357.285 211.456 379.796C206.336 364.407 192.498 362.618 187.174 349.074ZM324.342 324.888C324.506 318.557 322.518 313.203 318.643 308.975C328.739 340.195 302.18 341.692 312.032 362.062C311.58 345.85 323.972 339.436 324.342 324.888ZM309.588 314.829C309.916 309.429 308.076 304.912 304.327 301.399C313.568 327.775 287.093 329.745 296.372 346.862C296.343 333.052 308.858 327.256 309.588 314.829ZM240.226 397.386C250.279 399.092 258.187 395.096 261.07 387.937L268.64 386.603C273.683 392.642 283.139 392.533 290.99 388.38C289.94 394.575 286.671 399.548 282.251 403.123C278.294 406.325 273.406 408.425 268.301 409.298C263.212 410.181 257.919 409.834 253.139 408.131C247.874 406.277 243.232 402.755 240.226 397.386Z" fill="url(#paint0_linear_2_55)"/>
</g>
</g>
<g opacity="0.6">
<rect width="300" height="300" transform="translate(1529.09 205) rotate(10)" fill="#FFEA7E"/>
<g clip-path="url(#clip1_2_55)">
<path fill-rule="evenodd" clip-rule="evenodd" d="M1655.59 282.258C1658.77 281.562 1661.99 280.924 1665.34 280.605C1669.27 280.224 1669.62 280.318 1673.21 281.877C1678.68 284.246 1683.41 287.129 1687.35 290.567C1695.1 297.322 1698.2 303.637 1698.93 313.665C1705.38 312.275 1710.97 313.887 1713.59 319.092C1717.41 326.725 1714 335.973 1705.67 338.967C1702.39 340.14 1698.79 339.638 1694.44 337.068C1693.45 339.192 1692.29 341.335 1690.95 343.511C1682.93 356.559 1670.74 361.994 1655.5 359.274C1637.66 356.096 1627.95 341.146 1626.59 325.172C1621.71 326.046 1618.21 325.28 1615.56 323.077C1608.75 317.415 1608.72 307.56 1614.91 301.694C1619.22 297.626 1625.13 298.091 1630.82 301.771C1635.44 292.406 1643.67 284.899 1655.59 282.258ZM1648.32 337.96C1647.33 337.951 1646.54 337.152 1646.55 336.162C1646.56 335.172 1647.36 334.387 1648.35 334.396C1652.41 334.434 1656.41 334.825 1660.33 335.55C1664.25 336.258 1668.07 337.295 1671.79 338.595C1672.72 338.925 1673.2 339.936 1672.89 340.872C1672.56 341.806 1671.55 342.288 1670.61 341.975C1667.03 340.715 1663.39 339.742 1659.69 339.057C1656 338.356 1652.21 337.986 1648.32 337.96ZM1666.07 321.836C1666.8 321.966 1667.29 322.664 1667.16 323.401C1667.03 324.138 1666.33 324.627 1665.6 324.497C1664.86 324.367 1664.37 323.669 1664.5 322.932C1664.63 322.195 1665.33 321.706 1666.07 321.836ZM1678.37 314.866C1680.31 315.208 1681.6 317.056 1681.26 318.995C1680.92 320.934 1679.07 322.228 1677.13 321.886C1675.19 321.544 1673.9 319.697 1674.24 317.757C1674.57 315.815 1676.41 314.521 1678.37 314.866ZM1650.06 309.874C1652 310.216 1653.3 312.064 1652.95 314.004C1652.61 315.943 1650.76 317.237 1648.82 316.895C1646.88 316.553 1645.59 314.705 1645.93 312.766C1646.26 310.824 1648.12 309.533 1650.06 309.874ZM1659.54 320.686C1660.28 320.816 1660.77 321.513 1660.64 322.251C1660.51 322.988 1659.81 323.477 1659.07 323.346C1658.34 323.216 1657.85 322.519 1657.98 321.782C1658.11 321.044 1658.81 320.556 1659.54 320.686ZM1699.06 317.423C1699.01 322.836 1697.97 328.386 1695.72 334.121C1695.82 333.876 1695.91 333.644 1696.02 333.399C1698.89 334.978 1701.29 335.286 1703.46 334.528C1709.2 332.548 1711.51 326.346 1708.85 321.199C1707.08 317.763 1703.36 316.628 1699.06 317.423ZM1626.44 321.162C1626.44 315.708 1627.42 310.261 1629.35 305.198C1625.51 302.885 1621.56 302.618 1618.68 305.282C1614.41 309.208 1614.47 315.829 1619.18 319.651C1620.94 321.102 1623.26 321.643 1626.44 321.162ZM1650.84 294.576C1657.86 295.086 1660.23 298.496 1665.37 299.799C1667.43 300.046 1669.44 300.466 1671.37 300.179C1673.02 299.94 1674.7 299.707 1676.4 299.595C1681.99 299.208 1685.57 300.484 1689.86 304.332C1690.55 304.948 1691.17 305.604 1691.71 306.294C1693.87 309.039 1694.97 312.455 1694.68 316.766C1693.78 324.689 1689.69 329.505 1682.58 331.375C1685.13 345.857 1680.13 354.378 1663.8 353.979C1650.6 353.237 1632.67 347.315 1637.21 330.746C1637.9 328.224 1639.07 325.886 1640.68 323.722C1626.71 313.608 1635.59 293.456 1650.84 294.576ZM1626.73 345.724C1637.86 370.444 1668.44 375.041 1686.63 356.749C1699.98 367.034 1703.79 392.017 1699.03 407.442C1693.02 410.051 1687.01 412.924 1681.77 416.678C1676.3 420.589 1671.66 425.456 1668.69 431.89C1668.61 432.058 1668.55 432.229 1668.52 432.405L1666.68 440.56C1664.42 442.987 1662.25 444.308 1660.29 444.755C1658.81 445.089 1657.47 444.918 1656.31 444.383C1655.12 443.826 1654.09 442.834 1653.3 441.572C1652.13 439.68 1651.56 437.199 1651.82 434.518C1653.01 425.87 1656.49 418.897 1661.7 413.155C1667.01 407.299 1674.19 402.665 1682.64 398.816C1683.45 398.446 1684.05 397.644 1684.12 396.681C1684.42 392.767 1684.48 389.093 1684.15 385.678C1683.78 382.143 1682.97 378.844 1681.53 375.78C1680.93 374.5 1679.39 373.948 1678.11 374.549C1676.83 375.15 1676.26 376.686 1676.88 377.968C1678.06 380.473 1678.73 383.219 1679.03 386.214C1679.3 388.905 1679.29 391.763 1679.12 394.791C1670.68 398.79 1663.43 403.61 1657.91 409.71C1652 416.222 1648.06 424.121 1646.73 433.919C1646.73 433.951 1646.72 433.983 1646.72 434.015C1647.04 441.095 1651.48 451.894 1657.31 455.848C1658.94 452.729 1660.09 451.132 1662.41 449.524C1671.59 446.68 1671.7 441.71 1673.47 433.824C1676.03 428.408 1680.02 424.253 1684.75 420.872C1689.52 417.449 1695.04 414.787 1700.59 412.361C1702.55 417.515 1702.89 418.104 1699.48 425.452L1683.3 450.828C1684.32 450.792 1685.33 450.772 1686.32 450.765C1689.27 450.791 1692.17 451.053 1694.56 451.755C1696.68 452.377 1698.99 453.247 1701.19 454.378C1703.09 455.36 1704.94 456.412 1706.5 457.794C1706.56 457.838 1706.61 457.897 1706.65 457.954L1707.55 458.872C1719.09 470.773 1729.89 481.934 1746.47 480.791C1748.01 480.683 1749.24 482.519 1749.33 484.072C1749.44 485.612 1748.26 486.957 1746.72 487.05C1727.55 488.379 1715.86 476.303 1703.41 463.43L1702.57 462.571C1701.39 461.554 1700.01 460.666 1698.54 459.927C1696.69 458.973 1694.7 458.243 1692.88 457.707C1691.03 457.165 1688.65 456.961 1686.16 456.935C1683.9 456.916 1681.61 457.058 1679.51 457.233L1675.26 464.02C1679.59 464.47 1683.26 466.688 1685.33 473.135C1685.14 480.157 1681.65 484.285 1673.51 484.337L1654.34 476.149C1650.55 472.423 1649.96 467.938 1652.83 462.594C1642.77 457.234 1640.74 447.009 1641.41 435.145L1635.01 438.331C1636.24 436.646 1637.2 434.651 1637.76 432.419C1637.76 432.387 1637.77 432.355 1637.78 432.323C1639.86 422.674 1638.91 413.912 1635.6 405.776C1632.51 398.158 1627.39 391.14 1620.82 384.495C1621.69 381.557 1622.65 378.85 1623.78 376.423C1625.07 373.741 1626.59 371.381 1628.57 369.433C1629.57 368.437 1629.58 366.802 1628.58 365.8C1627.59 364.797 1625.95 364.79 1624.95 365.787C1622.54 368.173 1620.69 371.002 1619.15 374.234C1617.67 377.345 1616.51 380.81 1615.46 384.557C1615.19 385.486 1615.49 386.431 1616.12 387.071C1622.74 393.577 1627.87 400.381 1630.83 407.696C1633.75 414.87 1634.6 422.606 1632.76 431.157C1632.08 433.765 1630.7 435.901 1628.95 437.279C1627.78 438.196 1626.47 438.775 1625.16 438.891C1623.9 439.016 1622.57 438.698 1621.29 437.878C1619.6 436.787 1618 434.818 1616.72 431.75L1617.79 423.46C1617.81 423.265 1617.82 423.086 1617.8 422.917C1617.21 415.839 1614.51 409.694 1610.71 404.149C1607.04 398.757 1602.31 393.974 1597.51 389.425C1597.38 389.303 1597.24 389.195 1597.09 389.103L1600.61 377.477C1604.66 365.382 1605.76 361.743 1615.93 352.842C1619.38 349.864 1622.96 347.47 1626.73 345.724ZM1620.27 443.135L1623.39 456.923C1624.44 464.297 1621.96 468.406 1616.15 469.397L1597.33 470.888C1584.68 467.336 1585.38 450.321 1602.08 450.422L1591.94 401.449C1593.08 399.287 1593.05 396.142 1595.38 394.949L1595.5 394.557C1599.57 398.465 1603.47 402.574 1606.54 407.082C1609.83 411.876 1612.16 417.145 1612.71 423.11L1611.61 431.692C1611.53 432.125 1611.58 432.596 1611.75 433.039C1613.5 437.53 1615.92 440.501 1618.56 442.206C1619.12 442.586 1619.68 442.883 1620.27 443.135Z" fill="url(#paint1_linear_2_55)"/>
</g>
</g>
<g opacity="0.6">
<rect width="180" height="180" transform="translate(779.383 99.2406) rotate(-4)" fill="#FF7E7E"/>
<path fill-rule="evenodd" clip-rule="evenodd" d="M823.712 131.501C826.106 127.531 829.167 124.096 832.804 121.41C836.345 118.798 840.38 116.894 844.856 115.896C851.704 114.366 855.551 115.171 860.038 116.125C862.125 116.573 864.384 117.043 867.152 117.26C868.243 117.344 869.285 117.385 870.243 117.364C871.201 117.343 872.154 117.265 873.116 117.129C876.315 116.665 878.514 115.609 880.646 114.581C884.855 112.551 888.888 110.613 897.923 111.774C902.014 112.299 905.918 113.75 909.585 115.881C913.525 118.175 917.141 121.211 920.389 124.707C921.611 126.015 921.537 128.064 920.229 129.286C919.736 129.743 919.139 130.025 918.517 130.114C923.939 134.326 928.389 139.336 931.83 145.103C937.029 153.796 939.937 164.19 940.471 176.235C940.55 178.012 939.182 179.523 937.396 179.614C937.203 179.627 937.019 179.617 936.835 179.596L936.836 179.607L932.169 179.009C935.465 188.097 937.132 196.751 936.275 204.737C935.225 214.552 930.452 223.222 920.415 230.263C919.044 231.226 917.175 230.957 916.117 229.707L912.212 225.149C911.634 227.017 910.949 228.812 910.145 230.535C908.447 234.183 906.266 237.453 903.601 240.335C896.498 248.026 888.797 252.048 880.757 252.542C872.627 253.042 864.356 249.908 856.252 243.269C853.224 240.797 850.606 237.988 848.312 234.905C847.064 233.222 845.902 231.465 844.826 229.633C844.26 230.848 843.906 232.152 843.716 233.525C843.463 235.29 841.825 236.523 840.048 236.271C839.748 236.223 839.457 236.141 839.186 236.023C830.533 232.322 823.884 226.563 820.325 217.642C817.231 209.818 816.568 199.689 819.129 186.491C817.734 186.965 816.427 187.707 815.354 188.525C813.933 189.606 811.904 189.326 810.822 187.905C810.381 187.319 810.163 186.638 810.161 185.964C809.226 174.381 810.22 163.782 813.918 154.433C816.586 147.68 820.628 141.63 826.337 136.388C825.02 136.332 823.829 135.467 823.405 134.138C823.112 133.222 823.252 132.276 823.712 131.501ZM853.188 174.139C852.595 174.809 851.571 174.858 850.913 174.264C850.243 173.671 850.194 172.647 850.788 171.989C854.177 168.189 857.082 166.786 859.673 166.925C862.355 167.069 864.476 168.816 866.328 171.29C866.858 172.007 866.712 173.022 865.995 173.552C865.278 174.082 864.263 173.936 863.733 173.219C862.423 171.472 861.036 170.244 859.499 170.158C857.871 170.066 855.836 171.179 853.188 174.139ZM860.779 215.075C862.9 213.899 864.668 212.885 866.217 212.011C871.841 208.809 874.629 207.209 877.769 207.024C880.884 206.829 883.79 208.042 889.587 210.434C891.363 211.167 893.409 212.017 895.43 212.824C904.665 206.559 905.895 197.691 901.199 186.873C906.22 181.269 912.086 176.473 911.578 168.891C911.254 164.083 909.449 159.995 906.346 156.124C898.039 145.775 887.372 144.626 873.085 149.359C855.753 146.14 842.798 150.335 838.633 168.99C836.269 178.634 840.875 185.21 849.79 189.886C847.463 203.81 851.304 212.038 860.779 215.075ZM893.013 215.334C891.122 214.575 889.652 213.97 888.347 213.433C882.996 211.226 880.314 210.112 877.972 210.253C875.583 210.397 873.014 211.867 867.819 214.823C866.567 215.539 865.172 216.333 863.623 217.206C865.855 220.054 868.409 222.125 871.432 223.056C875.766 224.774 880.103 224.071 884.433 222.146C887.728 220.922 890.557 218.589 893.013 215.334ZM870.177 195.141C869.365 194.478 869.047 193.849 869.292 193.261C869.82 192.002 871.359 192.123 872.484 192.044L881.358 191.39C882.312 191.323 882.796 191.221 883.371 192.094C883.704 192.607 883.394 193.406 882.476 194.475L876.609 200.241L870.177 195.141ZM898.622 168.644C899.302 169.224 899.384 170.235 898.815 170.914C898.234 171.594 897.224 171.677 896.544 171.107C893.436 168.47 891.235 167.687 889.616 168.063C888.066 168.423 886.85 169.981 885.761 172.044C885.348 172.838 884.365 173.147 883.582 172.733C882.788 172.321 882.479 171.337 882.893 170.555C884.373 167.722 886.22 165.548 888.872 164.929C891.466 164.302 894.616 165.247 898.622 168.644Z" fill="url(#paint2_linear_2_55)"/>
</g>
<g opacity="0.6" clip-path="url(#clip2_2_55)">
<rect width="200" height="200" transform="translate(1249.18 746.41) rotate(-12)" fill="#7EFFF7"/>
<g clip-path="url(#clip3_2_55)">
<path d="M1276.44 861.766C1274.3 862.346 1272.1 861.069 1271.51 858.908C1270.93 856.767 1272.21 854.563 1274.37 853.979C1279.76 852.523 1283.92 849.914 1287.06 846.317C1290.27 842.644 1292.49 837.85 1293.91 832.145C1294.45 829.974 1296.64 828.657 1298.79 829.197C1299.81 829.46 1300.64 830.071 1301.19 830.87C1305.85 836.673 1311.97 840.274 1318.3 841.589C1321.89 842.343 1325.52 842.358 1328.96 841.628C1330.61 841.277 1332.23 840.747 1333.78 840.043C1333.7 839.873 1333.64 839.678 1333.6 839.499C1330.97 826.928 1331.17 814.877 1334.74 803.502C1338.3 792.128 1345.21 781.435 1356 771.56C1356.03 771.532 1356.07 771.503 1356.1 771.475C1359.76 768.434 1363.36 766.027 1366.85 764.163C1370.62 762.157 1374.32 760.789 1377.84 759.957C1385.46 758.172 1392.26 759.01 1397.6 761.553C1401.58 763.45 1404.75 766.266 1406.89 769.675C1409.04 773.125 1410.12 777.134 1409.85 781.346C1409.55 786.272 1407.44 791.395 1403.12 796.114C1400.74 798.718 1397.68 800.72 1394.35 801.76C1391.64 802.626 1388.74 802.848 1385.9 802.288C1383.04 801.733 1380.24 800.376 1377.72 798.106C1374.81 795.443 1372.28 791.492 1370.55 786C1370.05 784.404 1370.94 782.719 1372.53 782.214C1374.13 781.708 1375.81 782.597 1376.32 784.193C1377.71 788.572 1379.63 791.634 1381.82 793.641C1383.47 795.139 1385.25 796.027 1387.07 796.367C1388.89 796.728 1390.77 796.578 1392.56 796.01C1394.84 795.297 1396.97 793.889 1398.66 792.035C1401.98 788.4 1403.59 784.566 1403.83 780.964C1404.01 778.036 1403.26 775.247 1401.77 772.862C1400.26 770.421 1397.94 768.4 1395.02 767.005C1350.99 753.967 1342.85 827.498 1392.43 823.214C1395.59 819.613 1398.56 814.91 1401.22 809.087C1402.14 807.063 1404.53 806.181 1406.56 807.101C1407.2 807.4 1407.73 807.848 1408.14 808.386C1412.43 814.225 1417.82 817.879 1423.41 819.35C1426.65 820.2 1429.96 820.327 1433.13 819.715C1436.32 819.099 1439.42 817.754 1442.26 815.675C1447.42 811.878 1451.67 805.657 1453.95 796.945C1454.51 794.79 1456.71 793.512 1458.86 794.072C1459.85 794.339 1460.67 794.955 1461.2 795.758C1465.09 801.661 1469.24 805.745 1473.68 807.791C1477.83 809.714 1482.39 809.827 1487.41 807.969C1489.49 807.195 1491.82 808.259 1492.6 810.358C1493.37 812.437 1492.31 814.761 1490.21 815.54C1483.06 818.201 1476.44 817.946 1470.29 815.098C1466.31 813.265 1462.61 810.332 1459.18 806.408C1456.2 813.295 1451.95 818.54 1447.01 822.166C1443.2 824.97 1438.99 826.779 1434.62 827.605C1430.23 828.435 1425.72 828.27 1421.33 827.127C1415.76 825.672 1410.39 822.615 1405.73 817.956C1402.29 824.172 1398.47 829.056 1394.36 832.609C1389.83 836.522 1384.95 838.869 1379.86 839.659C1374.73 840.458 1369.49 839.641 1364.31 837.272C1360.63 835.582 1356.98 833.095 1353.4 829.826C1351.05 835.666 1347.52 840.26 1343.26 843.596C1339.47 846.583 1335.13 848.544 1330.56 849.516C1326.01 850.484 1321.25 850.477 1316.6 849.513C1310.53 848.247 1304.62 845.348 1299.54 840.838C1297.91 844.903 1295.77 848.516 1293.08 851.601C1288.91 856.415 1283.44 859.864 1276.44 861.766ZM1262.27 907.203C1260.13 907.782 1257.93 906.506 1257.34 904.344C1256.76 902.203 1258.04 900 1260.2 899.416C1265.58 897.96 1269.75 895.351 1272.89 891.754C1276.09 888.08 1278.32 883.286 1279.74 877.582C1280.28 875.411 1282.47 874.093 1284.62 874.633C1285.63 874.896 1286.47 875.508 1287.01 876.306C1291.67 882.109 1297.8 885.71 1304.13 887.025C1307.71 887.779 1311.35 887.795 1314.79 887.064C1318.19 886.341 1321.41 884.888 1324.2 882.674C1328.56 879.234 1331.96 873.92 1333.48 866.679C1333.93 864.505 1336.06 863.097 1338.24 863.549C1339.17 863.745 1339.96 864.242 1340.52 864.932C1344.84 869.894 1349.21 873.369 1353.54 875.358C1357.27 877.078 1360.97 877.663 1364.51 877.119C1368.09 876.565 1371.63 874.837 1375 871.918C1379.4 868.095 1383.51 862.298 1387.11 854.491C1388.03 852.467 1390.42 851.585 1392.44 852.505C1393.08 852.804 1393.62 853.252 1394.02 853.79C1398.32 859.629 1403.71 863.282 1409.3 864.754C1412.53 865.603 1415.84 865.731 1419.01 865.119C1422.21 864.502 1425.31 863.158 1428.15 861.079C1433.3 857.282 1437.55 851.061 1439.83 842.349C1440.39 840.194 1442.59 838.916 1444.75 839.476C1445.74 839.743 1446.55 840.359 1447.08 841.161C1450.97 847.065 1455.12 851.148 1459.57 853.195C1463.72 855.118 1468.27 855.231 1473.3 853.373C1475.38 852.598 1477.7 853.663 1478.48 855.762C1479.25 857.841 1478.19 860.165 1476.09 860.944C1468.95 863.605 1462.33 863.35 1456.18 860.502C1452.19 858.669 1448.49 855.736 1445.06 851.812C1442.08 858.699 1437.84 863.944 1432.89 867.57C1429.08 870.374 1424.88 872.183 1420.5 873.009C1416.11 873.839 1411.61 873.674 1407.21 872.531C1401.64 871.075 1396.28 868.019 1391.61 863.36C1388.17 869.576 1384.35 874.46 1380.24 878.013C1375.72 881.926 1370.83 884.273 1365.74 885.063C1360.62 885.862 1355.37 885.045 1350.2 882.676C1346.51 880.986 1342.87 878.499 1339.28 875.23C1336.93 881.07 1333.4 885.664 1329.14 889C1325.36 892.007 1321 893.992 1316.43 894.964C1311.88 895.931 1307.12 895.925 1302.47 894.961C1296.4 893.695 1290.49 890.796 1285.42 886.286C1283.79 890.351 1281.65 893.964 1278.96 897.049C1274.74 901.851 1269.27 905.321 1262.27 907.203Z" fill="url(#paint3_linear_2_55)"/>
</g>
</g>
<g opacity="0.6" clip-path="url(#clip4_2_55)">
<rect width="180" height="180" transform="translate(388.424 712) rotate(12)" fill="#54D160"/>
<g clip-path="url(#clip5_2_55)">
<path fill-rule="evenodd" clip-rule="evenodd" d="M514.595 884.462L369.197 853.557C373.033 835.51 518.431 866.415 514.595 884.462Z" fill="#333333"/>
<path fill-rule="evenodd" clip-rule="evenodd" d="M395.753 850.868L419.329 851.62L417.411 842.919L433.231 825.608L430.2 821.077C429.64 820.958 429.079 820.839 428.544 820.725L418.941 831.024L419.627 826.231C417.823 824.197 411.142 817.426 409.71 815.018L407.204 825.241L403.988 813.695L398.055 814.99L404.386 833.241L395.753 850.868Z" fill="#8C5D0F"/>
<path d="M396.513 816.672L399.363 816.599C402.011 816.234 404.58 815.43 406.964 814.221C407.368 815.108 407.82 815.973 408.317 816.812C409.848 819.622 412.311 821.812 415.281 823.004L416.221 822.525C413.432 819.55 410.082 815.896 409.544 814.61C408.783 812.731 408.262 810.765 407.993 808.756C407.95 808.52 407.906 808.285 407.879 808.039C407.494 804.256 407.854 800.435 408.939 796.79C409.809 793.992 410.993 791.3 412.468 788.768C412.056 786.48 411.907 784.153 412.025 781.831C412.179 778.475 412.966 775.178 414.343 772.114C414.797 771.106 415.341 770.05 415.957 768.969C412.457 767.111 408.575 766.086 404.613 765.973C400.239 766.132 395.942 767.175 391.981 769.038C389.089 770.62 386.561 774.249 385.177 777.19C383.44 781.196 383.25 785.704 384.644 789.842C380.98 795.12 379.787 800.165 380.339 804.395C380.649 807.068 381.768 809.582 383.547 811.6C385.268 813.523 390.143 815.451 392.867 816.164C394.071 816.474 395.307 816.647 396.551 816.68L396.513 816.672Z" fill="url(#paint4_linear_2_55)"/>
<path d="M388.132 796.481C386.522 799.596 386.094 803.188 386.927 806.594C387.375 808.07 388.196 809.405 389.312 810.469C389.015 809.917 388.778 809.336 388.602 808.734C387.766 805.319 388.206 801.715 389.838 798.6L389.854 798.524L388.132 796.481ZM399.749 773.139C397.443 773.307 395.223 774.079 393.31 775.377C391.52 776.606 390.163 778.366 389.431 780.41C388.512 783.22 388.67 786.271 389.875 788.971L389.858 789.047L391.344 791.2C390.158 788.524 390.004 785.504 390.91 782.721C391.641 780.663 393.011 778.892 394.819 777.668C396.733 776.38 398.952 775.617 401.254 775.455C405.201 775.209 409.122 776.243 412.434 778.404C412.48 778.188 412.526 777.971 412.572 777.754C410.907 776.072 408.887 774.783 406.659 773.983C404.432 773.182 402.053 772.89 399.698 773.128L399.749 773.139Z" fill="#4DA11D"/>
<path d="M406.364 839.279L404.87 843.674L404.587 844.506L403.786 844.269L402.508 843.891L403.059 842.238L403.535 842.379L404.758 838.818L406.361 839.292L406.364 839.279Z" fill="#AF7311"/>
<path d="M408.869 831L406.775 837.53L405.151 837.092L407.248 830.549L408.869 831Z" fill="#AF7311"/>
<path fill-rule="evenodd" clip-rule="evenodd" d="M473.602 863.262L494.852 870.694L493.272 858.272L508.66 841.428L504.968 835.812L494.806 846.737L496.93 832.546C493.712 837.852 489.944 838.355 484.755 835.655L483.407 841.119L481.544 834.413C479.41 833.494 477.089 832.388 474.632 831.174L474.492 831.144L480.657 848.921L473.614 863.265L473.602 863.262Z" fill="#8C5D0F"/>
<path d="M487.693 836.799C488.738 837.706 489.942 838.413 491.243 838.884C494.216 839.84 497.44 839.646 500.277 838.342C501.025 838.034 501.756 837.687 502.468 837.303L504.882 840.479C505.421 841.041 506.012 841.55 506.648 841.999C508.551 843.42 510.926 844.059 513.285 843.782C515.487 843.505 520.116 842.958 522.065 841.176C524.361 838.948 526.157 836.258 527.337 833.285C531.92 831.889 535.034 829.702 536.834 827.183C538.118 825.425 538.779 823.288 538.71 821.112C538.597 818.949 537.832 816.87 536.516 815.148C534.44 812.391 528.629 809.545 524.142 808.232C523.755 806.925 523.884 803.185 523.375 802.012C521.045 796.312 517.815 792.657 513.973 790.695C511.144 789.319 507.977 788.794 504.856 789.183C507.44 790.67 509.701 792.657 511.507 795.03C512.625 796.633 513.512 798.385 514.141 800.235C514.791 802.115 515.154 804.081 515.217 806.069V806.069C515.263 807.882 515.049 809.692 514.581 811.444C514.133 814.241 513.035 816.894 511.377 819.19C509.7 821.511 507.594 823.49 505.172 825.019C503.508 826.081 501.744 826.976 499.905 827.693C499.283 828.89 498.592 830.05 497.835 831.167C494.941 835.517 493.231 838.175 487.673 836.768L487.693 836.799Z" fill="url(#paint5_linear_2_55)"/>
<path d="M482.561 854.743L481.107 859.014L480.83 859.82L480.041 859.586L478.799 859.229L479.342 857.613L479.808 857.739L480.983 854.275L482.561 854.743Z" fill="#AF7311"/>
<path d="M484.982 846.672L482.964 853.032L481.379 852.602L483.409 846.245L484.982 846.672Z" fill="#AF7311"/>
<path fill-rule="evenodd" clip-rule="evenodd" d="M433.541 854.96L458.638 859.949L456.277 850.328L474.261 831.414L469.843 825.018L457.959 837.281L460.472 820.51L447.927 816.712L444.469 830.726L440.657 817.975L433.829 819.412L441.293 839.595L433.541 854.96Z" fill="#8C5D0F"/>
<path d="M433.046 821.216L436.215 821.024C439.155 820.574 441.997 819.63 444.622 818.232C445.077 819.287 445.522 820.261 446.081 821.205C447.688 824.397 450.383 826.91 453.68 828.291C457.061 829.393 460.74 829.118 463.919 827.526C464.784 827.152 465.626 826.726 466.44 826.251L469.141 829.953C469.752 830.597 470.42 831.185 471.137 831.709C472.193 832.541 473.406 833.151 474.704 833.503C476.002 833.854 477.358 833.939 478.689 833.753C481.186 833.405 486.452 832.741 488.688 830.554C491.311 827.833 493.355 824.609 494.696 821.075C499.909 819.348 503.465 816.709 505.582 813.698C507.07 811.577 507.843 809.037 507.789 806.446C507.691 803.907 506.853 801.452 505.377 799.384C503.125 796.137 496.51 792.814 491.451 791.313C491.023 789.757 491.171 785.303 490.651 783.928C488.095 777.168 484.484 772.859 480.167 770.624C475.85 768.388 470.644 768.333 465.223 769.976C464.285 770.256 463.333 770.6 462.342 771.002C455.991 765.059 448.921 762.438 442.514 762.394C437.652 762.63 432.895 763.886 428.551 766.082C425.398 767.954 422.556 772.182 421.015 775.609C419.057 780.269 418.804 785.471 420.302 790.3C416.249 796.467 414.82 802.313 415.379 807.198C415.663 810.249 416.862 813.144 418.819 815.503C420.705 817.714 426.047 819.888 429.035 820.67C430.357 821.019 431.717 821.205 433.084 821.224L433.046 821.216Z" fill="url(#paint6_linear_2_55)"/>
<path d="M482.249 785.19C480.592 780.964 478.273 778.221 475.497 776.753C473.949 775.992 472.266 775.546 470.545 775.44C468.824 775.335 467.099 775.572 465.47 776.139C464.813 776.32 464.167 776.538 463.534 776.793L464.745 779.552L464.859 779.577C465.493 779.357 466.137 779.17 466.789 779.015C468.42 778.447 470.147 778.209 471.871 778.315C473.594 778.421 475.279 778.868 476.828 779.632C479.157 780.928 481.057 782.877 482.292 785.239L482.249 785.19ZM423.974 798.388C422.166 801.998 421.656 806.121 422.531 810.062C422.982 811.77 423.864 813.333 425.094 814.601C424.776 813.957 424.522 813.283 424.337 812.589C423.456 809.407 423.786 805.35 425.838 800.768L425.79 800.678L423.985 798.337L423.974 798.388ZM437.07 771.221C434.504 771.44 432.044 772.347 429.949 773.847C427.926 775.323 426.401 777.381 425.58 779.747C424.542 782.996 424.687 786.507 425.989 789.658L425.968 789.76L427.601 792.224C426.331 789.098 426.197 785.627 427.223 782.413C428.022 780.053 429.524 777.994 431.526 776.512C433.647 774.994 436.142 774.083 438.742 773.879C443.697 773.55 448.595 775.095 452.465 778.207C449.371 772.97 442.877 770.645 437.045 771.215L437.07 771.221Z" fill="#4DA11D"/>
<path d="M443.856 846.264L442.204 851.091L441.902 852.012L441.014 851.743L439.596 851.335L440.223 849.512L440.738 849.661L442.074 845.752L443.853 846.276L443.856 846.264Z" fill="#AF7311"/>
<path d="M446.591 837.154L444.305 844.336L442.519 843.849L444.819 836.658L446.591 837.154Z" fill="#AF7311"/>
</g>
</g>
<defs>
<linearGradient id="paint0_linear_2_55" x1="172.17" y1="347.697" x2="337.97" y2="318.462" gradientUnits="userSpaceOnUse">
<stop stop-color="#3E9395"/>
<stop offset="1" stop-color="#2B0982"/>
</linearGradient>
<linearGradient id="paint1_linear_2_55" x1="1597.85" y1="367.885" x2="1764.72" y2="397.307" gradientUnits="userSpaceOnUse">
<stop stop-color="#3E9395"/>
<stop offset="1" stop-color="#2B0982"/>
</linearGradient>
<linearGradient id="paint2_linear_2_55" x1="810.172" y1="186.228" x2="940.561" y2="177.11" gradientUnits="userSpaceOnUse">
<stop stop-color="#3E9395"/>
<stop offset="1" stop-color="#2B0982"/>
</linearGradient>
<linearGradient id="paint3_linear_2_55" x1="1245.46" y1="848.49" x2="1489.71" y2="796.574" gradientUnits="userSpaceOnUse">
<stop stop-color="#3E9395"/>
<stop offset="1" stop-color="#2B0982"/>
</linearGradient>
<linearGradient id="paint4_linear_2_55" x1="382.516" y1="788.019" x2="421.782" y2="796.365" gradientUnits="userSpaceOnUse">
<stop stop-color="#3E9395"/>
<stop offset="1" stop-color="#2B0982"/>
</linearGradient>
<linearGradient id="paint5_linear_2_55" x1="492.85" y1="812.41" x2="538.773" y2="822.172" gradientUnits="userSpaceOnUse">
<stop stop-color="#3E9395"/>
<stop offset="1" stop-color="#2B0982"/>
</linearGradient>
<linearGradient id="paint6_linear_2_55" x1="417.877" y1="788.542" x2="507.858" y2="807.668" gradientUnits="userSpaceOnUse">
<stop stop-color="#3E9395"/>
<stop offset="1" stop-color="#2B0982"/>
</linearGradient>
<clipPath id="clip0_2_55">
<rect width="168.358" height="160" fill="white" transform="translate(158.49 270.115) rotate(-10)"/>
</clipPath>
<clipPath id="clip1_2_55">
<rect width="169.466" height="200" fill="white" transform="translate(1614.95 270.911) rotate(10)"/>
</clipPath>
<clipPath id="clip2_2_55">
<rect width="200" height="200" fill="white" transform="translate(1249.18 746.41) rotate(-12)"/>
</clipPath>
<clipPath id="clip3_2_55">
<rect width="249.714" height="120" fill="white" transform="translate(1233.19 790.704) rotate(-12)"/>
</clipPath>
<clipPath id="clip4_2_55">
<rect width="180" height="180" fill="white" transform="translate(388.424 712) rotate(12)"/>
</clipPath>
<clipPath id="clip5_2_55">
<rect width="160" height="104.922" fill="white" transform="translate(390.401 750.798) rotate(12)"/>
</clipPath>
</defs>
</svg>
